<svg width="346" height="56" viewBox="0 0 346 56" fill="none" xmlns="http://www.w3.org/2000/svg">
<g clip-path="url(#clip0_34_204)">
<path d="M16.34 16.5093C12.28 19.9408 6.06998 19.5881 2.46998 15.7181C-1.13002 11.8482 -0.76002 5.92886 3.29998 2.49737C7.35998 -0.934116 13.57 -0.581435 17.17 3.28852C20.77 7.15848 20.4 13.0778 16.34 16.5093Z" fill="#316E6D"/>
<path d="M42.62 2.43066L35.27 8.64547L27.92 14.8603L20.57 21.0751C16.51 24.5066 16.14 30.4259 19.74 34.2959C23.34 38.1658 29.55 38.5185 33.61 35.087L40.96 28.8722L48.31 22.6574L55.66 16.4426C59.72 13.0111 60.09 7.09177 56.49 3.22181C52.89 -0.648146 46.68 -1.00083 42.62 2.43066Z" fill="#73B8B6"/>
<path d="M81.94 2.35438L74.59 8.56918L59.89 20.9893L45.2 33.4189L37.85 39.6337C33.79 43.0652 33.42 48.9845 37.02 52.8545C40.62 56.7244 46.83 57.0771 50.89 53.6456L58.24 47.4308L72.94 35.0107L87.64 22.5906L94.99 16.3758C99.05 12.9443 99.42 7.02501 95.82 3.15506C92.21 -0.7149 86 -1.07711 81.94 2.35438Z" fill="#73B8B6"/>
<path d="M94.98 16.3663C90.92 19.7978 84.71 19.4451 81.11 15.5751C77.51 11.7052 77.88 5.78587 81.94 2.35438C86 -1.07711 92.21 -0.7149 95.81 3.15506C99.41 7.02501 99.04 12.9348 94.98 16.3663Z" fill="#316E6D"/>
<path d="M55.6599 16.4426C51.5999 19.8741 45.3899 19.5214 41.7899 15.6514C38.1899 11.7815 38.5599 5.86215 42.6199 2.43066C46.6799 -1.00083 52.8899 -0.648146 56.4899 3.22181C60.0899 7.09177 59.7199 13.0111 55.6599 16.4426Z" fill="#316E6D"/>
<path d="M109.35 0.123901H118.24V37.6034H109.35V0.123901Z" fill="#383838"/>
<path d="M126.77 9.07437H134.01L134.65 12.7346H134.87C137.32 10.3802 140.01 8.37854 143.94 8.37854C148.15 8.37854 150.69 10.1133 152.2 13.1826C154.83 10.5613 157.64 8.37854 161.6 8.37854C168.07 8.37854 170.96 12.7537 170.96 19.8931V37.6034H162.09V20.9797C162.09 16.8715 160.91 15.5942 158.39 15.5942C156.89 15.5942 155.18 16.4902 153.3 18.368V37.6129H144.43V20.9797C144.43 16.8715 143.25 15.5942 140.73 15.5942C139.25 15.5942 137.52 16.4902 135.64 18.368V37.6129H126.77V9.07437Z" fill="#383838"/>
<path d="M176.63 42.5124C176.63 40.1485 178.12 38.2325 180.87 36.7646V36.5359C179.32 35.5445 178.14 34.048 178.14 31.6936C178.14 29.6348 179.57 27.633 181.48 26.3462V26.1175C179.37 24.7163 177.46 22.0473 177.46 18.7207C177.46 11.8768 183.4 8.39764 189.84 8.39764C191.51 8.39764 193.13 8.64547 194.48 9.08394H205.43V15.2416H200.62C201.18 16.0899 201.63 17.5102 201.63 18.9971C201.63 25.5646 196.39 28.5862 189.85 28.5862C188.76 28.5862 187.52 28.4051 186.2 28.0334C185.47 28.6434 185.16 29.1486 185.16 30.159C185.16 31.5697 186.37 32.2465 189.64 32.2465H194.5C201.84 32.2465 205.93 34.3912 205.93 39.5003C205.93 45.4291 199.45 49.7471 189.18 49.7471C182.19 49.7376 176.63 47.5833 176.63 42.5124ZM197.41 40.9396C197.41 39.1381 195.79 38.7282 192.85 38.7282H189.74C187.69 38.7282 186.52 38.6138 185.54 38.366C184.43 39.262 183.92 40.1389 183.92 41.1684C183.92 43.3321 186.55 44.4378 190.55 44.4378C194.56 44.4378 197.41 42.9127 197.41 40.9396ZM193.93 18.7112C193.93 15.6705 192.2 14.0691 189.84 14.0691C187.48 14.0691 185.75 15.661 185.75 18.7112C185.75 21.8376 187.5 23.4676 189.84 23.4676C192.18 23.4676 193.93 21.8376 193.93 18.7112Z" fill="#383838"/>
<path d="M211.8 0H235.55V5.6143H218.8V15.2511H232.99V20.8654H218.8V31.9986H236.15V37.6129H211.8V0Z" fill="#383838"/>
<path d="M243.65 9.36037H249.35L249.88 14.4028H250.07C252.18 10.7234 255.32 8.67407 258.49 8.67407C260 8.67407 260.95 8.85518 261.84 9.24599L260.63 14.9937C259.59 14.7173 258.82 14.5362 257.59 14.5362C255.22 14.5362 252.38 16.0804 250.59 20.3793V37.613H243.64V9.36037H243.65Z" fill="#383838"/>
<path d="M263.35 30.016C263.35 23.9632 268.61 20.8177 280.77 19.569C280.67 16.5379 279.39 14.0024 275.39 14.0024C272.45 14.0024 269.67 15.2701 267.06 16.7857L264.5 12.3724C267.76 10.4184 271.96 8.66449 276.66 8.66449C284.07 8.66449 287.71 13.011 287.71 20.8844V37.6034H282.01L281.48 34.4769H281.29C278.64 36.6407 275.6 38.2992 272.1 38.2992C266.92 38.2992 263.35 34.944 263.35 30.016ZM280.77 30.0446V23.6963C272.73 24.659 270.05 26.6607 270.05 29.5203C270.05 32.0177 271.84 33.1043 274.32 33.1043C276.74 33.1043 278.57 31.9796 280.77 30.0446Z" fill="#383838"/>
<path d="M293.12 34.3625L296.35 30.1494C298.98 32.1035 301.53 33.3045 304.53 33.3045C307.76 33.3045 309.29 31.8556 309.29 29.9207C309.29 27.5567 306.08 26.4892 302.92 25.3453C299.03 23.9537 294.59 21.8281 294.59 17.1098C294.59 12.2104 298.74 8.66449 305.38 8.66449C309.51 8.66449 312.81 10.2659 315.23 12.0483L312.04 16.1184C309.97 14.6696 307.88 13.6592 305.55 13.6592C302.57 13.6592 301.16 15.0127 301.16 16.7857C301.16 19.0161 304.15 19.8645 307.36 20.9988C311.37 22.4286 315.85 24.2682 315.85 29.5299C315.85 34.3816 311.82 38.2992 304.34 38.2992C300.29 38.2992 296.02 36.6407 293.12 34.3625Z" fill="#383838"/>
<path d="M320.11 23.5057C320.11 14.3264 326.79 8.66449 333.77 8.66449C341.78 8.66449 346.01 14.1835 346.01 22.0759C346.01 23.3436 345.87 24.6019 345.71 25.2977H326.9C327.48 30.3115 330.86 33.1615 335.64 33.1615C338.17 33.1615 340.35 32.399 342.52 31.1121L344.89 35.2299C342.06 37.041 338.49 38.2897 334.73 38.2897C326.53 38.2992 320.11 32.8279 320.11 23.5057ZM339.99 20.7986C339.99 16.4521 337.96 13.8022 333.91 13.8022C330.46 13.8022 327.42 16.2614 326.81 20.7986H339.99Z" fill="#383838"/>
</g>
<defs>
<clipPath id="clip0_34_204">
<rect width="346" height="56" fill="white"/>
</clipPath>
</defs>
</svg>
